<svg id="visual" viewBox="0 0 900 50" width="900" height="50" xmlns="http://www.w3.org/2000/svg" xmlns:xlink="http://www.w3.org/1999/xlink" version="1.1"><rect x="0" y="0" width="900" height="50" fill="#191A22"></rect><path d="M0 22L21.5 21C43 20 86 18 128.8 16C171.7 14 214.3 12 257.2 11.2C300 10.3 343 10.7 385.8 13C428.7 15.3 471.3 19.7 514.2 22C557 24.3 600 24.7 642.8 23.2C685.7 21.7 728.3 18.3 771.2 16.2C814 14 857 13 878.5 12.5L900 12L900 51L878.5 51C857 51 814 51 771.2 51C728.3 51 685.7 51 642.8 51C600 51 557 51 514.2 51C471.3 51 428.7 51 385.8 51C343 51 300 51 257.2 51C214.3 51 171.7 51 128.8 51C86 51 43 51 21.5 51L0 51Z" fill="#191a22"></path><path d="M0 29L21.5 29.5C43 30 86 31 128.8 31.8C171.7 32.7 214.3 33.3 257.2 31.7C300 30 343 26 385.8 25.2C428.7 24.3 471.3 26.7 514.2 26.7C557 26.7 600 24.3 642.8 24.2C685.7 24 728.3 26 771.2 27.8C814 29.7 857 31.3 878.5 32.2L900 33L900 51L878.5 51C857 51 814 51 771.2 51C728.3 51 685.7 51 642.8 51C600 51 557 51 514.2 51C471.3 51 428.7 51 385.8 51C343 51 300 51 257.2 51C214.3 51 171.7 51 128.8 51C86 51 43 51 21.5 51L0 51Z" fill="#202129"></path><path d="M0 41L21.5 41.2C43 41.3 86 41.7 128.8 40.2C171.7 38.7 214.3 35.3 257.2 35.2C300 35 343 38 385.8 38.2C428.7 38.3 471.3 35.7 514.2 34C557 32.3 600 31.7 642.8 32C685.7 32.3 728.3 33.7 771.2 34.3C814 35 857 35 878.5 35L900 35L900 51L878.5 51C857 51 814 51 771.2 51C728.3 51 685.7 51 642.8 51C600 51 557 51 514.2 51C471.3 51 428.7 51 385.8 51C343 51 300 51 257.2 51C214.3 51 171.7 51 128.8 51C86 51 43 51 21.5 51L0 51Z" fill="#272830"></path></svg>