<svg id="visual" viewBox="0 0 900 300" width="900" height="300" xmlns="http://www.w3.org/2000/svg" xmlns:xlink="http://www.w3.org/1999/xlink" version="1.1"><rect x="0" y="0" width="900" height="300" fill="#272833"></rect><path d="M0 124L21.5 122C43 120 86 116 128.8 115.8C171.7 115.7 214.3 119.3 257.2 118.3C300 117.3 343 111.7 385.8 105.5C428.7 99.3 471.3 92.7 514.2 89.5C557 86.3 600 86.7 642.8 90.3C685.7 94 728.3 101 771.2 106.5C814 112 857 116 878.5 118L900 120L900 0L878.5 0C857 0 814 0 771.2 0C728.3 0 685.7 0 642.8 0C600 0 557 0 514.2 0C471.3 0 428.7 0 385.8 0C343 0 300 0 257.2 0C214.3 0 171.7 0 128.8 0C86 0 43 0 21.5 0L0 0Z" fill="#fa7268"></path><path d="M0 62L21.5 66.5C43 71 86 80 128.8 81.5C171.7 83 214.3 77 257.2 75C300 73 343 75 385.8 76C428.7 77 471.3 77 514.2 76.8C557 76.7 600 76.3 642.8 80.3C685.7 84.3 728.3 92.7 771.2 96.3C814 100 857 99 878.5 98.5L900 98L900 0L878.5 0C857 0 814 0 771.2 0C728.3 0 685.7 0 642.8 0C600 0 557 0 514.2 0C471.3 0 428.7 0 385.8 0C343 0 300 0 257.2 0C214.3 0 171.7 0 128.8 0C86 0 43 0 21.5 0L0 0Z" fill="#f56967"></path><path d="M0 56L21.5 57.2C43 58.3 86 60.7 128.8 63.7C171.7 66.7 214.3 70.3 257.2 69.5C300 68.7 343 63.3 385.8 64.2C428.7 65 471.3 72 514.2 74.5C557 77 600 75 642.8 74.7C685.7 74.3 728.3 75.7 771.2 76.2C814 76.7 857 76.3 878.5 76.2L900 76L900 0L878.5 0C857 0 814 0 771.2 0C728.3 0 685.7 0 642.8 0C600 0 557 0 514.2 0C471.3 0 428.7 0 385.8 0C343 0 300 0 257.2 0C214.3 0 171.7 0 128.8 0C86 0 43 0 21.5 0L0 0Z" fill="#f05f66"></path><path d="M0 32L21.5 34.2C43 36.3 86 40.7 128.8 42C171.7 43.3 214.3 41.7 257.2 39C300 36.3 343 32.7 385.8 34.7C428.7 36.7 471.3 44.3 514.2 45C557 45.7 600 39.3 642.8 39.7C685.7 40 728.3 47 771.2 47.2C814 47.3 857 40.7 878.5 37.3L900 34L900 0L878.5 0C857 0 814 0 771.2 0C728.3 0 685.7 0 642.8 0C600 0 557 0 514.2 0C471.3 0 428.7 0 385.8 0C343 0 300 0 257.2 0C214.3 0 171.7 0 128.8 0C86 0 43 0 21.5 0L0 0Z" fill="#ea5665"></path><path d="M0 24L21.5 23.3C43 22.7 86 21.3 128.8 21C171.7 20.7 214.3 21.3 257.2 22.5C300 23.7 343 25.3 385.8 25.8C428.7 26.3 471.3 25.7 514.2 25.8C557 26 600 27 642.8 28.2C685.7 29.3 728.3 30.7 771.2 30.7C814 30.7 857 29.3 878.5 28.7L900 28L900 0L878.5 0C857 0 814 0 771.2 0C728.3 0 685.7 0 642.8 0C600 0 557 0 514.2 0C471.3 0 428.7 0 385.8 0C343 0 300 0 257.2 0C214.3 0 171.7 0 128.8 0C86 0 43 0 21.5 0L0 0Z" fill="#e44c65"></path></svg>