<svg id="visual" viewBox="0 0 900 100" width="900" height="100" xmlns="http://www.w3.org/2000/svg" xmlns:xlink="http://www.w3.org/1999/xlink" version="1.1"><rect x="0" y="0" width="900" height="100" fill="#1C1D26"></rect><path d="M0 69L21.5 69.2C43 69.3 86 69.7 128.8 68C171.7 66.3 214.3 62.7 257.2 61.7C300 60.7 343 62.3 385.8 65C428.7 67.7 471.3 71.3 514.2 72.2C557 73 600 71 642.8 68.8C685.7 66.7 728.3 64.3 771.2 63.8C814 63.3 857 64.7 878.5 65.3L900 66L900 101L878.5 101C857 101 814 101 771.2 101C728.3 101 685.7 101 642.8 101C600 101 557 101 514.2 101C471.3 101 428.7 101 385.8 101C343 101 300 101 257.2 101C214.3 101 171.7 101 128.8 101C86 101 43 101 21.5 101L0 101Z" fill="#fa7268"></path><path d="M0 83L21.5 81C43 79 86 75 128.8 74C171.7 73 214.3 75 257.2 76.2C300 77.3 343 77.7 385.8 78.2C428.7 78.7 471.3 79.3 514.2 79.2C557 79 600 78 642.8 77.7C685.7 77.3 728.3 77.7 771.2 78C814 78.3 857 78.7 878.5 78.8L900 79L900 101L878.5 101C857 101 814 101 771.2 101C728.3 101 685.7 101 642.8 101C600 101 557 101 514.2 101C471.3 101 428.7 101 385.8 101C343 101 300 101 257.2 101C214.3 101 171.7 101 128.8 101C86 101 43 101 21.5 101L0 101Z" fill="#f05f66"></path><path d="M0 84L21.5 83.8C43 83.7 86 83.3 128.8 83.5C171.7 83.7 214.3 84.3 257.2 85.2C300 86 343 87 385.8 87.5C428.7 88 471.3 88 514.2 87.3C557 86.7 600 85.3 642.8 85.8C685.7 86.3 728.3 88.7 771.2 90C814 91.3 857 91.7 878.5 91.8L900 92L900 101L878.5 101C857 101 814 101 771.2 101C728.3 101 685.7 101 642.8 101C600 101 557 101 514.2 101C471.3 101 428.7 101 385.8 101C343 101 300 101 257.2 101C214.3 101 171.7 101 128.8 101C86 101 43 101 21.5 101L0 101Z" fill="#e44c65"></path></svg>